<mxfile host="Electron" modified="2024-01-08T12:08:58.253Z" agent="Mozilla/5.0 (Windows NT 10.0; Win64; x64) AppleWebKit/537.36 (KHTML, like Gecko) draw.io/22.1.16 Chrome/120.0.6099.109 Electron/28.1.0 Safari/537.36" etag="GxTtlcMw3t_fRk5kTIvb" version="22.1.16" type="device">
  <diagram name="Сторінка-1" id="qZCLiruLUWmuINUmYw6f">
    <mxGraphModel dx="1050" dy="629" grid="1" gridSize="10" guides="1" tooltips="1" connect="1" arrows="1" fold="1" page="1" pageScale="1" pageWidth="827" pageHeight="1169" math="0" shadow="0">
      <root>
        <mxCell id="0" />
        <mxCell id="1" parent="0" />
        <mxCell id="9z1X49CUFN2_ZgNK7yin-5" value="NoteManager" style="swimlane;fontStyle=1;align=center;verticalAlign=top;childLayout=stackLayout;horizontal=1;startSize=26;horizontalStack=0;resizeParent=1;resizeParentMax=0;resizeLast=0;collapsible=1;marginBottom=0;whiteSpace=wrap;html=1;" vertex="1" parent="1">
          <mxGeometry x="60" y="70" width="200" height="170" as="geometry" />
        </mxCell>
        <mxCell id="9z1X49CUFN2_ZgNK7yin-6" value="- notes: dict &lt;br&gt;- exit_words: list &lt;br&gt;- data_file_path: str" style="text;strokeColor=none;fillColor=none;align=left;verticalAlign=top;spacingLeft=4;spacingRight=4;overflow=hidden;rotatable=0;points=[[0,0.5],[1,0.5]];portConstraint=eastwest;whiteSpace=wrap;html=1;" vertex="1" parent="9z1X49CUFN2_ZgNK7yin-5">
          <mxGeometry y="26" width="200" height="54" as="geometry" />
        </mxCell>
        <mxCell id="9z1X49CUFN2_ZgNK7yin-7" value="" style="line;strokeWidth=1;fillColor=none;align=left;verticalAlign=middle;spacingTop=-1;spacingLeft=3;spacingRight=3;rotatable=0;labelPosition=right;points=[];portConstraint=eastwest;strokeColor=inherit;" vertex="1" parent="9z1X49CUFN2_ZgNK7yin-5">
          <mxGeometry y="80" width="200" height="8" as="geometry" />
        </mxCell>
        <mxCell id="9z1X49CUFN2_ZgNK7yin-8" value="+ __init__()&lt;br&gt;+ save_notes_to_file()&lt;br&gt;+ load_notes_from_file()&lt;br&gt;+get_note_by_name(name: str)&lt;br&gt;+ handle_command(command: str)" style="text;strokeColor=none;fillColor=none;align=left;verticalAlign=top;spacingLeft=4;spacingRight=4;overflow=hidden;rotatable=0;points=[[0,0.5],[1,0.5]];portConstraint=eastwest;whiteSpace=wrap;html=1;" vertex="1" parent="9z1X49CUFN2_ZgNK7yin-5">
          <mxGeometry y="88" width="200" height="82" as="geometry" />
        </mxCell>
        <mxCell id="9z1X49CUFN2_ZgNK7yin-13" value="NoteActions" style="swimlane;fontStyle=0;childLayout=stackLayout;horizontal=1;startSize=26;fillColor=none;horizontalStack=0;resizeParent=1;resizeParentMax=0;resizeLast=0;collapsible=1;marginBottom=0;whiteSpace=wrap;html=1;" vertex="1" parent="1">
          <mxGeometry x="440" y="100" width="240" height="100" as="geometry" />
        </mxCell>
        <mxCell id="9z1X49CUFN2_ZgNK7yin-14" value="+ add_note(notes: dict, name: str, title: str)&lt;br&gt;+ edit_note(notes: dict, name: str, new_title: str)&lt;br&gt;+ delete_note(notes: dict, name: str)" style="text;strokeColor=none;fillColor=none;align=left;verticalAlign=top;spacingLeft=4;spacingRight=4;overflow=hidden;rotatable=0;points=[[0,0.5],[1,0.5]];portConstraint=eastwest;whiteSpace=wrap;html=1;" vertex="1" parent="9z1X49CUFN2_ZgNK7yin-13">
          <mxGeometry y="26" width="240" height="74" as="geometry" />
        </mxCell>
        <mxCell id="9z1X49CUFN2_ZgNK7yin-17" value="" style="endArrow=open;html=1;endSize=12;startArrow=diamondThin;startSize=14;startFill=1;edgeStyle=orthogonalEdgeStyle;align=left;verticalAlign=bottom;rounded=0;entryX=0.998;entryY=0.082;entryDx=0;entryDy=0;entryPerimeter=0;exitX=-0.003;exitY=0.102;exitDx=0;exitDy=0;exitPerimeter=0;" edge="1" parent="1" source="9z1X49CUFN2_ZgNK7yin-13" target="9z1X49CUFN2_ZgNK7yin-5">
          <mxGeometry x="-1" y="3" relative="1" as="geometry">
            <mxPoint x="370" y="160" as="sourcePoint" />
            <mxPoint x="270" y="130" as="targetPoint" />
            <Array as="points">
              <mxPoint x="429" y="110" />
              <mxPoint x="320" y="110" />
              <mxPoint x="320" y="84" />
            </Array>
          </mxGeometry>
        </mxCell>
        <mxCell id="9z1X49CUFN2_ZgNK7yin-21" value="" style="endArrow=open;html=1;endSize=12;startArrow=diamondThin;startSize=14;startFill=0;edgeStyle=orthogonalEdgeStyle;align=left;verticalAlign=bottom;rounded=0;entryX=0.008;entryY=0.049;entryDx=0;entryDy=0;entryPerimeter=0;" edge="1" parent="1" target="9z1X49CUFN2_ZgNK7yin-14">
          <mxGeometry x="-1" y="3" relative="1" as="geometry">
            <mxPoint x="260" y="230" as="sourcePoint" />
            <mxPoint x="420" y="230" as="targetPoint" />
            <Array as="points">
              <mxPoint x="320" y="230" />
              <mxPoint x="320" y="130" />
            </Array>
          </mxGeometry>
        </mxCell>
      </root>
    </mxGraphModel>
  </diagram>
</mxfile>
